<svg id="Layer_1" enable-background="new 0 0 511.976 511.976" height="512" viewBox="0 0 511.976 511.976" width="512" xmlns="http://www.w3.org/2000/svg"><path d="m255.336 90.504c4.175 0 7.559-3.384 7.559-7.559v-27.457c0-4.175-3.384-7.559-7.559-7.559s-7.559 3.384-7.559 7.559v27.457c0 4.175 3.385 7.559 7.559 7.559z"/><path d="m202.597 98.01c1.476 1.475 3.41 2.213 5.344 2.213 1.935 0 3.87-.738 5.346-2.215 2.951-2.952 2.95-7.738-.002-10.69l-19.446-19.438c-2.952-2.951-7.738-2.951-10.69.002-2.951 2.952-2.95 7.738.002 10.69z"/><path d="m302.76 100.223c1.934 0 3.868-.738 5.344-2.213l19.445-19.438c2.953-2.952 2.954-7.738.002-10.69-2.95-2.952-7.737-2.954-10.689-.002l-19.445 19.438c-2.953 2.952-2.954 7.738-.002 10.69 1.475 1.477 3.41 2.215 5.345 2.215z"/><path d="m294.086 301.318h19.105c4.175 0 7.559-3.384 7.559-7.559s-3.384-7.559-7.559-7.559h-19.105c-4.175 0-7.559 3.384-7.559 7.559s3.385 7.559 7.559 7.559z"/><path d="m493.069 358.316v-59.857c.247-23.064-12.198-38.655-33.294-41.707-20.953-3.024-26.146-4.501-33.537-13.282-.027-.032-.055-.064-.082-.096l-52.356-60.128c-.073-.084-.148-.167-.226-.247-15.617-16.41-22.081-23.203-40.059-23.203h-48.369v-16.101c0-17.214-13.996-31.219-31.2-31.219h-2.353c-17.219 0-31.229 14.005-31.229 31.219v16.101h-92.419c-4.175 0-7.559 3.384-7.559 7.559s3.384 7.559 7.559 7.559h119.837c-.001.054-.008.106-.008.161v182.558h-74.815c-10.899-9.972-25.401-16.066-41.301-16.066s-30.402 6.094-41.301 16.066h-56.19v-172.313c0-5.64 4.704-10.405 10.271-10.405h48.87c4.175 0 7.559-3.384 7.559-7.559s-3.384-7.559-7.559-7.559h-48.87c-14 0-25.389 11.45-25.389 25.523v172.963c-10.902 2.544-19.049 12.333-19.049 23.995 0 13.589 11.059 24.645 24.652 24.645h45.914c2.12 31.853 28.703 57.124 61.094 57.124 32.392 0 58.974-25.271 61.095-57.124h57.054c4.175 0 7.559-3.384 7.559-7.559s-3.384-7.559-7.559-7.559h-57.912c-1.242-6.809-3.609-13.225-6.908-19.054h149.884c-3.3 5.828-5.668 12.245-6.911 19.054h-43.542c-4.175 0-7.559 3.384-7.559 7.559s3.384 7.559 7.559 7.559h42.682c2.121 31.853 28.716 57.124 61.123 57.124 32.392 0 58.974-25.271 61.094-57.124h38.005c13.593 0 24.651-11.056 24.651-24.645.001-11.612-8.076-21.367-18.906-23.962zm-15.117-40.749h-22.857c-1.615 0-2.93-1.312-2.93-2.925v-7.877c0-1.57 1.342-2.897 2.93-2.897h22.857zm-242.468-173.871c0-8.878 7.227-16.101 16.11-16.101h2.353c8.868 0 16.083 7.223 16.083 16.101v16.101h-34.545v-16.101zm26.834 31.219h71.198c11.042 0 13.477 2.085 28.992 18.385l52.204 59.954c11.28 13.375 21.893 15.429 42.9 18.46 12.142 1.756 17.367 9.056 19.324 17.035h-21.843c-9.951 0-18.047 8.082-18.047 18.015v7.877c0 9.949 8.096 18.043 18.047 18.043h22.857v24.948h-48.425c-10.899-9.972-25.4-16.066-41.301-16.066-15.908 0-30.416 6.094-41.32 16.066h-84.579v-182.557c.001-.054-.006-.106-.007-.16zm-247.2 207.363c0-5.253 4.277-9.527 9.534-9.527h.038c.613.161 1.254.255 1.917.255s1.304-.094 1.917-.255h49.807c-3.299 5.828-5.666 12.245-6.908 19.054h-46.771c-5.257 0-9.534-4.274-9.534-9.527zm116.542 66.651c-25.436 0-46.129-20.684-46.129-46.108 0-25.439 20.693-46.136 46.129-46.136s46.129 20.697 46.129 46.136c.001 25.424-20.693 46.108-46.129 46.108zm256.565 0c-25.451 0-46.158-20.684-46.158-46.108 0-25.439 20.707-46.136 46.158-46.136 25.436 0 46.13 20.697 46.13 46.136 0 25.424-20.694 46.108-46.13 46.108zm99.1-57.124h-38.864c-1.242-6.809-3.609-13.225-6.907-19.054h42.039c.613.161 1.254.255 1.917.255.658 0 1.292-.093 1.901-.251 5.217.047 9.448 4.299 9.448 9.523 0 5.253-4.277 9.527-9.534 9.527z"/><path d="m388.225 373.926c-15.922 0-28.875 12.962-28.875 28.896 0 15.917 12.953 28.867 28.875 28.867s28.875-12.95 28.875-28.867c0-15.934-12.953-28.896-28.875-28.896zm0 42.644c-7.586 0-13.758-6.168-13.758-13.749 0-7.597 6.172-13.777 13.758-13.777s13.758 6.181 13.758 13.777c0 7.581-6.172 13.749-13.758 13.749z"/><path d="m131.66 373.926c-15.922 0-28.875 12.962-28.875 28.896 0 15.917 12.954 28.867 28.875 28.867 15.922 0 28.876-12.95 28.876-28.867 0-15.934-12.953-28.896-28.876-28.896zm0 42.644c-7.586 0-13.757-6.168-13.757-13.749 0-7.597 6.171-13.777 13.757-13.777s13.758 6.181 13.758 13.777c0 7.581-6.172 13.749-13.758 13.749z"/><path d="m308.168 272.56h61.6c.128 0 .255-.003.381-.01 5.426-.285 9.676-4.471 9.676-9.528v-3.054c0-5.568-2.561-8.33-5.273-11.254-1.142-1.232-2.563-2.765-4.374-5.024-.002-.002-.004-.004-.006-.007l-25.749-32.038c-4.976-6.201-10.448-10.33-20.979-10.33h-25.399c-5.59 0-10.218 4.055-10.535 9.231-.009.152-.014.305-.013.458l.082 43.019c.001 8.915 7.872 18.537 20.589 18.537zm15.277-56.695c4.922 0 6.64 1.16 9.635 4.891l25.751 32.04c1.833 2.286 3.335 3.949 4.501 5.214h-55.164c-4.267 0-6.039-2.597-6.039-4.001l-.072-38.144z"/><path d="m87.79 252.701v27.146c0 6.887 5.604 12.489 12.491 12.489h13.333v13.324c0 6.887 5.604 12.49 12.491 12.49h27.156c6.903 0 12.52-5.603 12.52-12.49v-13.324h13.304c6.903 0 12.52-5.603 12.52-12.489v-27.146c0-6.902-5.617-12.518-12.52-12.518h-13.305v-13.295c0-6.902-5.617-12.518-12.52-12.518h-27.156c-6.888 0-12.491 5.616-12.491 12.518v13.295h-13.333c-6.887 0-12.49 5.616-12.49 12.518zm15.118 2.601h18.265c4.175 0 7.559-3.384 7.559-7.559v-18.254h21.931v18.254c0 4.175 3.384 7.559 7.559 7.559h18.265v21.916h-18.265c-4.175 0-7.559 3.384-7.559 7.559v18.254h-21.931v-18.254c0-4.175-3.384-7.559-7.559-7.559h-18.265z"/></svg>