<?xml version="1.0"?>
<svg xmlns="http://www.w3.org/2000/svg" id="Layer_1" data-name="Layer 1" viewBox="0 0 512 512" width="512" height="512"><title>lady doctor</title><path d="M77.95,493H232.818c.84,0,1.744.428,2.663.428a6.9,6.9,0,0,0,2.438-.388.543.543,0,0,1,.194-.04h35.142c.364,0,.749.306,1.159.458a7.053,7.053,0,0,0,2.436.491c1.267,0,2.5-.949,3.585-.949H434.049c13.609,0,25.548-12.748,25.548-27.162a7.494,7.494,0,0,0-.2-1.727c-.1-.414-10.291-41.792-18.539-76.149-5-20.835-20.345-40.287-43.208-55.876-7.665-31.135-15.36-77.633-15.607-113.185l-.033-4.97c-.285-45.4-.609-96.869-22-138.358C340.875,38.449,296.835,15,252.921,18.552A19.633,19.633,0,0,0,235,40.283a5.622,5.622,0,0,1-6.933,6.08c-21.573-5.3-45.324,1.72-63.53,18.779-14.112,13.223-24,31.355-29.4,53.892-6.113,25.531-6.116,55.9-.009,90.265,5.441,30.614-.378,71.939-16.816,119.62-24.821,16.153-41.6,36.907-47.158,59.5C63.734,418.564,52.6,464.071,52.6,464.071a7.9,7.9,0,0,0-.2,1.767C52.4,480.252,64.341,493,77.95,493ZM189.668,345.191c-.115-.086-11.549-8.753-17.095-18.746a9.468,9.468,0,0,1-.914-7.574c1.078-3.583,4.252-6.975,8.737-9.333,1.629-.691,10.271-3.605,19.727-6.712l6.619,46.057a7.031,7.031,0,0,0,.368,2.559l.481,3.346c.021.15.047.3.077.442l15.482,97.929-47.983-77.373c-.069-.112-.142-.222-.217-.33-2.906-4.142-3.745-8.449-3.289-10.879a2.382,2.382,0,0,1,.534-1.3c3.173-2.117,10.914-4.629,15.046-5.715a7,7,0,0,0,2.427-12.371Zm-6.735-187.325c-1.784-10.47-3.839-40.692,7.917-54.62,4.316-5.113,10.156-7.6,17.856-7.6,5.281,0,8.372,4.6,14.164,15.083,7.507,13.594,17.788,32.211,45.185,32.211,11.372,0,23.366-3.9,33.949-7.336,8.779-2.852,20.8-6.758,23.864-4.356,4.985,3.909,4.874,18.076,3.231,26.41a7,7,0,0,0,11.942,6.192c1.115-1.176,4.006-3.752,6.734-2.278,2.4,1.295,4.312,5.427,2.861,11.578C345.965,192.917,333.882,206,325.44,206h-.15a7.152,7.152,0,0,0-7.131,6.78c-.4,5.781-3.578,35.41-27.408,50.454-9.4,5.939-21.089,8.967-34.754,8.967-13.709,0-25.432-2.939-34.841-8.75-24.787-15.324-27.133-46.972-27.319-50.531a7,7,0,0,0-7-6.8l-.131,0c-8.439.173-20.648-13.028-25.346-32.9-1.454-6.178.444-10.78,3.07-12.133,2.448-1.263,5.025,1.07,6.342,2.571a7,7,0,0,0,12.162-5.793ZM321.525,352a7,7,0,0,0,5.183,5.418c3.463.857,11.676,3.334,14.956,5.522a2.1,2.1,0,0,1,.539,1.248c.4,2.142-.221,6.2-3.3,10.586-.069.1-.134.2-.2.3l-49.873,79.464,15.655-103.054,7.332-49.855c10.463,3.706,20.079,7.184,21.706,7.91,4.453,2.351,7.614,5.733,8.679,9.29a9.45,9.45,0,0,1-.929,7.534c-5.533,9.972-16.952,18.559-17.06,18.641A7,7,0,0,0,321.525,352Zm-101.2-7.022-7.179-49.95,7.491-15.976c10.229,4.759,22.086,7.165,35.36,7.165,13.322,0,25.219-2.483,35.48-7.389l7.405,14.559-7.568,51.463c-10.474,5.536-32.064,11.5-36.222,11.531C251.093,356.279,230.236,350.245,220.325,344.977Zm2.5,16.576c12.322,4.932,27.487,8.879,32.247,8.879,5.108,0,21-3.973,33.767-9.027L270.987,479H241.376ZM427.242,391.2c7.573,31.544,16.778,69.076,18.331,75.388-.4,6.426-5.811,12.408-11.524,12.408H290.137l60.337-96.238c4.656-6.712,6.707-14.622,5.488-21.108a15.685,15.685,0,0,0-6.533-10.338,40.118,40.118,0,0,0-7.2-3.6,69.326,69.326,0,0,0,11.289-14.548,24.66,24.66,0,0,0,2.627-7.008c.947.373,1.893.746,2.826,1.131,9.742,21.114,16.226,47.581,17.5,71.136a27.867,27.867,0,1,0,14.032.18,222.065,222.065,0,0,0-12.732-62.27C404.209,351.071,422.334,370.749,427.242,391.2Zm-44.116,20.4a13.865,13.865,0,0,1,13.6,16.606h0a13.865,13.865,0,1,1-13.6-16.607ZM148.912,206.849c-14.3-80.466,9.648-116.922,25.2-131.491,14.518-13.6,33.915-19.5,50.618-15.4a19.623,19.623,0,0,0,24.189-21.215,5.634,5.634,0,0,1,5.135-6.239c37.835-3.047,77.161,17.751,93.517,49.481,19.852,38.512,20.165,88.2,20.441,132.03l.032,4.977c.222,31.869,6.209,72.123,12.933,103.091-4.42-2.319-9.047-4.5-13.847-6.558-.032-.015-.065-.027-.1-.042q-6.411-2.739-13.248-5.143a32.058,32.058,0,0,0-13.82-13.238c-1.967-1.041-16.223-6.134-28.862-10.579l-7.674-15.087c20.449-15.922,26.388-40.328,28.093-52.12,14.31-3.8,27.477-20.6,32.743-42.884,2.737-11.6-1.212-22.518-9.828-27.175a17.506,17.506,0,0,0-10.327-2.064q.01-.859,0-1.743c-.164-11.867-3.393-20.351-9.6-25.218-8.933-7-21.86-2.8-36.829,2.059-10.063,3.269-20.469,6.65-29.623,6.65-19.136,0-25.836-12.133-32.931-24.979C229.348,93.5,222.8,81.648,208.706,81.648c-11.909,0-21.516,4.228-28.554,12.567-12.119,14.358-13.159,37.825-12.387,52.581a17,17,0,0,0-9.748,1.847c-8.976,4.625-13.109,15.792-10.284,27.792,5.257,22.243,18.378,39.02,32.657,42.859,1.552,11.87,7.27,36.52,28.2,52.478l-7.507,16.009c-16.308,5.307-25.409,8.429-27.015,9.268a32.979,32.979,0,0,0-12.9,11.454A205.309,205.309,0,0,0,136.372,318.7C149.84,274.91,154.182,236.506,148.912,206.849ZM84.748,391.768c4.8-19.521,19.862-37.629,42.314-51.9a7.027,7.027,0,0,0,1.422-.879q3.951-2.45,8.186-4.741A246.826,246.826,0,0,0,126.44,365.6l-6.666-.472c-8.908-.631-16.482,5.542-18.833,15.36-2.784,11.624-14.126,49.077-14.24,49.453a7.047,7.047,0,0,0-.283,1.536,17.795,17.795,0,0,0,16.5,19.008,7,7,0,0,0,.987-13.965,3.8,3.8,0,0,1-3.515-3.466c1.837-6.077,11.511-38.2,14.171-49.3.119-.5,1.227-4.868,4.23-4.656l24.228,1.714c2.967.21,3.484,4.706,3.534,5.218,1.167,12.129,6.133,44.593,7.088,50.8a3.792,3.792,0,0,1-3.965,2.933,7,7,0,1,0-.99,13.965q.645.046,1.285.046a17.8,17.8,0,0,0,17.722-16.542,6.938,6.938,0,0,0-.066-1.564c-.058-.381-5.912-38.225-7.139-50.975C159.52,374.641,152.9,367.47,144,366.842l-3.358-.238c3.963-14.9,9.814-30.53,15.569-41.4.41-.162.827-.317,1.24-.477a24.251,24.251,0,0,0,2.881,8.514,70.278,70.278,0,0,0,11.423,14.707,42.09,42.09,0,0,0-7.329,3.677,15.481,15.481,0,0,0-6.526,10.363c-1.246,6.63.8,14.693,5.466,21.435L222.573,479H77.95c-5.714,0-11.128-5.986-11.524-12.413C68.033,460.021,77.949,419.389,84.748,391.768Z"/></svg>
